<svg width="144" height="144" viewBox="0 0 144 144" fill="none" xmlns="http://www.w3.org/2000/svg">
<path d="M92.0325 8.13065L92.0325 109.729M92.0325 8.13065C103.381 11.709 113.514 18.2659 121.411 26.9704M92.0325 8.13065C83.0911 5.31131 74.0448 4.58181 65.3402 5.60055M51.2651 135.053C59.8622 137.875 69.1766 138.982 78.7592 138.008C115.374 134.285 142.038 101.585 138.316 64.9704C137.316 55.1391 134.228 46.0253 129.535 38.0244M51.2651 135.053C27.0131 127.092 8.47018 105.483 5.72179 78.4513C2.83946 50.1016 18.715 25.3045 41.4767 13.1375M51.2651 135.053L52.6565 31.2721M52.6565 8.37735C52.8874 8.30255 53.1188 8.22897 53.3506 8.15664" stroke="#FCC502" stroke-width="10" stroke-linecap="round"/>
</svg>
